<?xml version="1.0" standalone="no"?>
<!DOCTYPE svg PUBLIC "-//W3C//DTD SVG 20010904//EN"
 "http://www.w3.org/TR/2001/REC-SVG-20010904/DTD/svg10.dtd">
<svg version="1.0" xmlns="http://www.w3.org/2000/svg"
 width="1530.000000pt" height="1530.000000pt" viewBox="0 0 1530.000000 1530.000000"
 preserveAspectRatio="xMidYMid meet">
<metadata>
Created by potrace 1.14, written by Peter Selinger 2001-2017
</metadata>
<g transform="translate(0.000000,1530.000000) scale(0.100000,-0.100000)"
fill="#000000" stroke="none">
<path d="M9958 15174 c-63 -15 -139 -50 -206 -96 -44 -30 -235 -216 -332 -323
-76 -83 -190 -212 -231 -260 -19 -22 -36 -42 -39 -45 -4 -4 -129 -150 -214
-250 -11 -14 -86 -104 -166 -200 -79 -96 -147 -177 -150 -180 -3 -3 -32 -39
-65 -80 -32 -41 -64 -80 -70 -86 -18 -19 -528 -656 -579 -724 -27 -36 -53 -67
-56 -70 -4 -3 -22 -25 -41 -50 -19 -25 -63 -81 -98 -125 -73 -92 -79 -100
-198 -255 -49 -63 -99 -131 -113 -150 -13 -19 -29 -40 -35 -46 -5 -6 -20 -24
-32 -40 -487 -651 -1074 -1404 -1156 -1483 -51 -49 -90 -50 -282 -6 -11 2
-101 34 -200 71 -161 59 -309 109 -358 119 -9 2 -21 6 -25 9 -5 3 -19 7 -33
10 -21 4 -376 100 -574 155 -112 31 -772 192 -846 206 -13 3 -71 14 -129 26
l-105 22 -64 66 c-35 36 -127 133 -205 215 -535 565 -898 930 -1111 1117 -223
195 -416 315 -519 323 -268 20 -527 -242 -528 -534 0 -80 21 -186 46 -235 9
-16 16 -34 16 -38 0 -21 151 -309 260 -497 179 -308 193 -333 535 -884 11 -18
39 -63 63 -102 24 -38 96 -152 162 -254 65 -102 136 -212 156 -245 21 -33 70
-109 110 -170 39 -60 113 -175 165 -255 85 -131 374 -565 521 -780 826 -1214
1008 -1496 1008 -1560 -1 -70 -71 -186 -231 -383 -118 -146 -210 -274 -452
-636 -251 -374 -616 -950 -654 -1031 -4 -8 -22 -38 -40 -67 -18 -29 -33 -54
-33 -57 0 -2 -18 -36 -40 -75 -23 -40 -38 -77 -34 -83 4 -6 3 -8 -4 -4 -5 3
-12 3 -14 -2 -1 -4 -30 -21 -63 -36 -130 -62 -1078 -536 -1089 -544 -6 -5 -56
-33 -111 -62 -288 -152 -525 -314 -642 -436 -72 -77 -99 -141 -102 -250 -7
-219 134 -422 354 -512 124 -50 255 -49 540 4 77 14 151 28 165 30 14 3 95 21
180 40 85 19 166 37 180 40 14 3 43 10 65 16 22 5 49 12 60 14 36 7 428 104
500 124 39 11 133 35 210 55 77 19 174 44 215 56 41 11 84 22 95 25 11 3 25 6
30 8 6 2 24 6 40 11 17 4 111 30 210 57 99 27 187 51 195 53 8 1 40 10 70 18
518 143 563 156 990 285 173 52 344 103 380 113 36 10 110 32 165 48 574 171
737 219 902 266 325 93 470 129 512 126 50 -2 134 -77 212 -186 88 -123 149
-215 149 -224 0 -5 3 -11 8 -13 4 -1 20 -23 36 -48 27 -41 120 -163 261 -340
78 -97 448 -553 460 -566 5 -6 28 -33 50 -60 41 -49 281 -330 300 -350 5 -6
46 -51 90 -100 44 -48 132 -142 195 -207 100 -103 116 -124 121 -160 12 -78
29 -182 34 -207 7 -33 10 -52 35 -200 11 -69 29 -170 40 -225 10 -55 21 -120
25 -145 3 -25 8 -52 11 -61 3 -10 7 -30 9 -45 10 -73 57 -314 89 -460 19 -88
37 -171 39 -185 24 -127 123 -438 176 -548 65 -137 118 -189 238 -234 70 -25
221 -30 298 -8 70 19 171 74 227 121 57 49 128 154 157 234 23 63 55 235 65
351 4 39 9 88 11 110 8 76 22 256 30 410 3 50 7 131 10 180 3 50 7 146 10 215
3 69 7 186 10 260 22 545 36 1361 34 2005 -2 986 0 1930 4 2010 3 44 5 99 6
122 2 93 95 151 400 248 174 56 596 214 736 276 22 10 128 54 235 99 387 162
575 246 860 382 l165 79 55 -10 c217 -42 307 -58 360 -67 19 -3 80 -14 135
-24 55 -11 116 -22 135 -25 19 -3 58 -10 85 -15 28 -5 103 -19 168 -30 64 -11
168 -29 230 -39 61 -11 132 -23 157 -26 25 -3 72 -10 105 -15 33 -5 80 -12
105 -15 25 -3 56 -8 70 -10 139 -23 342 -39 515 -39 251 0 330 24 426 131 140
158 167 383 69 588 -47 98 -118 175 -224 244 -188 122 -825 407 -1536 688 -91
35 -178 71 -195 78 -46 20 -708 277 -915 355 -25 9 -135 51 -245 93 -110 41
-272 101 -360 132 -88 32 -185 66 -215 77 -30 11 -109 40 -175 63 -250 89
-375 135 -525 190 -85 31 -159 58 -165 59 -5 2 -17 6 -25 9 -8 4 -78 29 -155
57 -77 27 -148 54 -157 60 -10 5 -22 10 -28 10 -16 0 -417 158 -473 187 -59
30 -73 44 -86 93 -22 81 -29 269 -16 430 5 57 5 429 0 538 -12 282 -18 414
-20 467 -4 84 -16 290 -20 350 -2 28 -6 102 -10 165 -4 63 -8 129 -10 145 -4
50 -15 177 -20 235 -3 30 -7 71 -10 90 -2 19 -7 62 -10 95 -4 33 -8 62 -10 64
-2 2 7 24 22 50 14 25 46 84 70 131 25 47 65 121 88 165 23 44 73 139 110 210
37 72 87 166 110 210 308 581 522 1073 552 1270 2 17 8 46 12 65 29 142 -87
335 -251 417 -117 59 -265 76 -390 47z m-1693 -5156 c-9 -141 -14 -232 -20
-353 -3 -60 -8 -135 -10 -165 -19 -253 -24 -579 -11 -715 32 -328 176 -565
426 -702 153 -83 417 -158 805 -227 17 -3 41 -8 55 -11 14 -2 39 -7 55 -10
196 -37 449 -87 465 -92 8 -3 11 -7 5 -9 -13 -5 -537 -162 -595 -179 -82 -24
-474 -144 -550 -169 -292 -95 -513 -221 -631 -361 -19 -22 -37 -41 -41 -43 -5
-2 -8 -8 -8 -14 0 -6 -12 -26 -26 -45 -23 -31 -70 -133 -79 -173 -1 -8 -8 -33
-14 -55 -28 -106 -31 -384 -6 -535 2 -14 6 -43 10 -65 7 -50 25 -162 30 -195
2 -14 7 -43 10 -65 3 -22 12 -76 20 -120 8 -44 21 -127 30 -185 8 -58 17 -117
20 -132 13 -72 14 -81 6 -72 -4 5 -84 126 -176 269 -244 376 -529 808 -546
825 -8 8 -33 40 -55 70 -96 127 -262 272 -384 335 -166 84 -365 102 -575 49
-58 -14 -188 -56 -230 -74 -88 -38 -129 -56 -185 -82 -36 -17 -96 -45 -135
-63 -38 -18 -124 -58 -190 -90 -146 -70 -277 -132 -370 -175 -38 -18 -78 -37
-89 -42 -14 -8 76 116 104 142 8 7 210 253 439 534 278 341 378 480 435 611
33 74 36 80 47 110 81 218 64 438 -50 658 -28 56 -141 222 -178 262 -10 11
-31 36 -47 55 -30 37 -166 186 -277 305 -37 38 -83 88 -103 110 -21 22 -62 66
-93 98 -31 31 -52 57 -47 57 10 0 68 -21 284 -103 80 -30 231 -87 335 -126
105 -39 199 -76 210 -80 81 -37 357 -126 418 -135 15 -3 35 -7 45 -10 49 -15
90 -19 227 -21 172 -4 247 10 369 69 232 112 383 308 699 906 30 58 71 134 91
170 20 36 46 84 58 108 12 23 24 42 26 42 2 0 1 -42 -3 -92z"/>
<path d="M5051 14914 c-122 -24 -194 -48 -310 -101 -324 -149 -596 -458 -715
-813 -13 -41 -27 -86 -30 -100 -2 -14 -9 -49 -15 -79 -26 -132 -31 -326 -12
-456 48 -316 174 -567 396 -791 262 -264 586 -398 955 -396 471 3 905 258
1153 677 69 118 146 326 163 445 2 14 8 52 13 85 12 72 7 328 -7 405 -60 325
-219 612 -456 818 -168 148 -435 280 -621 308 -22 3 -56 9 -76 13 -20 5 -101
8 -180 8 -111 0 -171 -5 -258 -23z"/>
<path d="M12109 13026 c-2 -2 -26 -7 -54 -10 -56 -8 -224 -50 -270 -69 -287
-117 -535 -324 -680 -569 -36 -61 -100 -196 -115 -243 -7 -22 -17 -46 -23 -52
-5 -7 -7 -13 -3 -13 3 0 1 -12 -5 -27 -10 -28 -32 -127 -44 -198 -3 -22 -8
-89 -9 -150 -16 -506 218 -950 644 -1225 74 -48 256 -133 310 -145 8 -1 35 -8
60 -15 56 -15 90 -22 190 -36 35 -5 290 -5 298 0 4 2 30 7 57 10 151 20 336
89 485 180 352 216 596 598 646 1011 14 115 9 322 -11 430 -37 200 -133 420
-253 580 -45 60 -200 219 -257 264 -154 120 -356 213 -560 257 -72 16 -394 32
-406 20z"/>
<path d="M1247 8984 c-1 -1 -24 -5 -52 -8 -509 -59 -953 -424 -1119 -918 -14
-42 -27 -87 -30 -100 -2 -13 -9 -41 -14 -63 -32 -121 -36 -393 -8 -545 28
-153 90 -319 177 -470 32 -55 128 -179 194 -249 161 -170 419 -321 623 -366
12 -3 32 -8 45 -11 109 -27 393 -39 477 -20 14 4 39 8 55 11 140 21 338 99
477 189 301 192 531 528 602 876 37 183 40 327 12 532 -10 72 -53 226 -68 243
-4 5 -8 17 -8 26 0 29 -106 225 -168 311 -183 253 -449 439 -741 517 -94 25
-95 26 -171 37 -49 7 -277 13 -283 8z"/>
<path d="M12430 5842 c-203 -11 -457 -93 -624 -200 -259 -167 -469 -429 -568
-712 -30 -86 -57 -196 -64 -263 -4 -34 -8 -65 -11 -69 -5 -10 -5 -245 1 -273
2 -11 7 -45 11 -75 55 -436 364 -854 770 -1044 187 -88 368 -125 585 -121 165
3 180 5 305 36 602 150 1029 710 1025 1344 0 66 -2 131 -4 145 -3 14 -7 45
-11 70 -14 107 -57 249 -114 374 -124 273 -357 514 -627 649 -210 104 -444
153 -674 139z"/>
<path d="M5615 3353 c-202 -23 -411 -94 -572 -194 -425 -265 -672 -728 -658
-1234 10 -366 149 -689 409 -951 210 -211 452 -336 746 -385 96 -16 302 -16
405 0 553 86 998 507 1124 1061 155 684 -214 1381 -859 1623 -140 52 -280 78
-435 81 -71 1 -143 0 -160 -1z"/>
</g>
</svg>
