<svg id="Layer_1" data-name="Layer 1" xmlns="http://www.w3.org/2000/svg" viewBox="0 0 56.25 65.69"><defs><style>.cls-1{fill:#00adfa;}.cls-1,.cls-10,.cls-11,.cls-12,.cls-2,.cls-3,.cls-4,.cls-5,.cls-8,.cls-9{fill-rule:evenodd;}.cls-2{fill:#8a40db;}.cls-3{fill:#01b578;}.cls-4{fill:#fdcc0e;}.cls-5,.cls-7{fill:#f13359;}.cls-6{fill:#373435;}.cls-8{fill:#f1540f;}.cls-9{fill:#00ad2d;}.cls-10{fill:#0041db;}.cls-11{fill:#034079;}.cls-12{fill:#035458;}.cls-13{isolation:isolate;font-size:14.88px;fill:#3e4095;font-family:MyriadPro-Regular, Myriad Pro;}.cls-14{letter-spacing:-0.06em;}.cls-15{letter-spacing:-0.01em;}.cls-16{letter-spacing:0em;}.cls-17{letter-spacing:0.03em;}.cls-18{letter-spacing:0em;}</style></defs><path class="cls-1" d="M27.75,13.34a4.21,4.21,0,1,0-4.12-4.2A4.16,4.16,0,0,0,27.75,13.34Z" transform="translate(-7.69 -4.18)"/><path class="cls-2" d="M48.88,10.74A4.21,4.21,0,1,0,53,15,4.17,4.17,0,0,0,48.88,10.74Z" transform="translate(-7.69 -4.18)"/><path class="cls-3" d="M49.66,32.6a4.21,4.21,0,1,0,4.11,4.21A4.16,4.16,0,0,0,49.66,32.6Z" transform="translate(-7.69 -4.18)"/><path class="cls-4" d="M19.93,34.73c2.54-1.24,5.12-2.44,7.66-3.63.82-1,1.62-2,2.42-3,2-2.61.41-3.76-1.44-5.78l-.26-.28q-1.87-.72-3.72-1.47c-1.08-.44-2.94-1.15-3.92-1.69a1.65,1.65,0,0,1,.53-3.16,6.24,6.24,0,0,1,1.42.16l-2.34-2.45c-.65-.67-2.46-2.58-3.35-2.78a1.65,1.65,0,0,0-1.6,2.21c.46,1.38,4.15,7,5.19,8.59.43.65,3.87,5.64,4,6s-.83,1.41-1.07,1.74A63.94,63.94,0,0,0,19.93,34.73Z" transform="translate(-7.69 -4.18)"/><path class="cls-1" d="M34.76,12.17c-.48.62-4.12,5.48-4.42,5.69s-1.59-.35-2-.47c-.9-.27-3.87-1.1-5.74-1.46,1.91,2,3.81,4.11,5.69,6.16l3.17,1.2c3.1,1.06,3.69-.81,5-3.2l.26-.49c.09-1.39.18-2.78.3-4.17a41.67,41.67,0,0,1,.44-4.24,1.65,1.65,0,0,1,3.17-.45A5.77,5.77,0,0,1,40.92,12c.46-.86.92-1.73,1.36-2.6S44,6.24,43.85,5.33a1.65,1.65,0,0,0-2.6-.81C40.09,5.4,35.93,10.69,34.76,12.17Z" transform="translate(-7.69 -4.18)"/><path class="cls-2" d="M40.92,12c-1.36,2.55-2.77,5.1-4.16,7.61l-.18,3.21c-.08,3.28,1.88,3.28,4.56,3.82l1,.21c1.14-.34,2.28-.67,3.43-1s3-.88,4.14-1.05a1.65,1.65,0,0,1,1.5,2.82,5.72,5.72,0,0,1-1.25.75c1,.2,2.06.38,3.08.56s3.51.65,4.34.28a1.64,1.64,0,0,0,0-2.72c-1.19-.85-7.48-3.23-9.25-3.9-.73-.28-6.46-2.28-6.75-2.51s-.15-1.62-.15-2C41.26,17.1,41.15,13.87,40.92,12Z" transform="translate(-7.69 -4.18)"/><path class="cls-3" d="M50,28.38c-2.61-.49-5.23-1-7.82-1.54q-1.83.54-3.66,1.11c-3.1,1.05-2.44,2.89-2,5.59,0,.23.07.45.1.68.64,1,1.28,2,1.9,3s1.7,2.66,2.17,3.67a1.65,1.65,0,0,1-2.28,2.25,3,3,0,0,1-.44-.35l.48,2.75c.17.93.6,3.52,1.24,4.18a1.64,1.64,0,0,0,2.55-.94c.39-1.41.46-8.13.48-10,0-.79-.07-6.85,0-7.2s1.47-.7,1.86-.84C45.47,30.39,48.3,29.24,50,28.38Z" transform="translate(-7.69 -4.18)"/><path class="cls-5" d="M25.31,38.06c.75-.21,6.55-2,6.91-2s1.09,1.21,1.33,1.54A59.94,59.94,0,0,0,38,42.79c-.48-2.85-.91-5.73-1.35-8.57q-1-1.62-2.1-3.21c-1.88-2.69-3.46-1.53-5.94-.37l-1,.46q-1.14,1.38-2.31,2.73A41.61,41.61,0,0,1,22.43,37a1.65,1.65,0,0,1-2.82-1.5,3.32,3.32,0,0,1,.32-.77l-2.34,1.15c-.84.42-3.2,1.57-3.66,2.36a1.64,1.64,0,0,0,1.63,2.18C17,40.4,23.49,38.57,25.31,38.06Z" transform="translate(-7.69 -4.18)"/><path class="cls-5" d="M29.08,40.19a4.21,4.21,0,1,0,4.11,4.21A4.17,4.17,0,0,0,29.08,40.19Z" transform="translate(-7.69 -4.18)"/><path class="cls-4" d="M15.72,31.46a4.21,4.21,0,1,0-4.11-4.21A4.17,4.17,0,0,0,15.72,31.46Z" transform="translate(-7.69 -4.18)"/><path class="cls-6" d="M29.08,40.17A4.06,4.06,0,0,1,32,41.41a4.3,4.3,0,0,1,0,6,4.07,4.07,0,0,1-5.85,0,4.3,4.3,0,0,1,0-6A4.06,4.06,0,0,1,29.08,40.17ZM32,41.44a4,4,0,0,0-5.79,0,4.25,4.25,0,0,0,0,5.92,4,4,0,0,0,5.79,0,4.25,4.25,0,0,0,0-5.92Z" transform="translate(-7.69 -4.18)"/><path class="cls-5" d="M29.08,40.19a4.21,4.21,0,1,0,4.11,4.21A4.17,4.17,0,0,0,29.08,40.19Z" transform="translate(-7.69 -4.18)"/><path class="cls-6" d="M29.08,40.21a4,4,0,0,0-2.9,1.23,4.25,4.25,0,0,0,0,5.92,4,4,0,0,0,5.79,0,4.25,4.25,0,0,0,0-5.92A4,4,0,0,0,29.08,40.21Zm-2.93,1.2a4.07,4.07,0,0,1,5.85,0,4.3,4.3,0,0,1,0,6,4.07,4.07,0,0,1-5.85,0,4.3,4.3,0,0,1,0-6Z" transform="translate(-7.69 -4.18)"/><path class="cls-7" d="M29.08,40.21a4,4,0,0,0-2.9,1.23,4.25,4.25,0,0,0,0,5.92,4,4,0,0,0,5.79,0,4.25,4.25,0,0,0,0-5.92A4,4,0,0,0,29.08,40.21Zm-2.93,1.2a4.07,4.07,0,0,1,5.85,0,4.3,4.3,0,0,1,0,6,4.07,4.07,0,0,1-5.85,0,4.3,4.3,0,0,1,0-6Z" transform="translate(-7.69 -4.18)"/><path class="cls-8" d="M22.43,37a41.61,41.61,0,0,0,2.85-3.17q1.17-1.35,2.31-2.73c-2.54,1.19-5.12,2.39-7.66,3.63a3.32,3.32,0,0,0-.32.77A1.65,1.65,0,0,0,22.43,37Z" transform="translate(-7.69 -4.18)"/><path class="cls-9" d="M20.67,18.93c1,.54,2.84,1.25,3.92,1.69q1.85.75,3.72,1.47C26.43,20,24.53,18,22.62,15.93a6.24,6.24,0,0,0-1.42-.16A1.65,1.65,0,0,0,20.67,18.93Z" transform="translate(-7.69 -4.18)"/><path class="cls-10" d="M37.5,11.19a41.67,41.67,0,0,0-.44,4.24c-.12,1.39-.21,2.78-.3,4.17,1.39-2.51,2.8-5.06,4.16-7.61a5.77,5.77,0,0,0-.25-1.25A1.65,1.65,0,0,0,37.5,11.19Z" transform="translate(-7.69 -4.18)"/><path class="cls-11" d="M49.75,24.81c-1.11.17-3,.74-4.14,1.05s-2.29.64-3.43,1c2.59.52,5.21,1.05,7.82,1.54a5.72,5.72,0,0,0,1.25-.75A1.65,1.65,0,0,0,49.75,24.81Z" transform="translate(-7.69 -4.18)"/><path class="cls-12" d="M40.67,40.89c-.47-1-1.55-2.68-2.17-3.67s-1.26-2-1.9-3c.44,2.84.87,5.72,1.35,8.57a3,3,0,0,0,.44.35A1.65,1.65,0,0,0,40.67,40.89Z" transform="translate(-7.69 -4.18)"/><text class="cls-13" transform="translate(0 61.97)">VI<tspan class="cls-14" x="11.86" y="0">V</tspan><tspan class="cls-15" x="19.31" y="0">A</tspan><tspan class="cls-16" x="28.2" y="0">CI</tspan><tspan class="cls-17" x="40.38" y="0">T</tspan><tspan class="cls-18" x="48.2" y="0">Y</tspan></text></svg>